<svg id="Layer_1" data-name="Layer 1" xmlns="http://www.w3.org/2000/svg" viewBox="0 0 274.43 55.5"><defs><style>.cls-1{fill:#fff;}</style></defs><title>logo-small</title><path class="cls-1" d="M220.77,275.08h-.12c-8.81,0-13,6-14.3,13.57-2.47,14.43,5,18.82,14.3,18.82h.12c9.29,0,16.76-4.39,14.3-18.82-1.3-7.6-5.49-13.57-14.3-13.57m0,29.18h-.07c-4.88,0-8.78-3.56-7.49-15.13.68-6.08,2.88-10.84,7.49-10.84h.07c4.6,0,6.8,4.76,7.48,10.84C229.52,300.7,225.61,304.26,220.75,304.26Zm48.58-13.73s6.2-1.21,6.2-7.21a6.64,6.64,0,0,0-2.95-5.5,12,12,0,0,0-7.55-2.28h-.28a12.07,12.07,0,0,0-7.55,2.28,6.64,6.64,0,0,0-2.93,5.5c0,6,6.19,7.18,6.18,7.21s-8.84,1.06-8.84,8c0,7.83,8.88,9.09,13.29,9.09s13.27-1.26,13.27-9.09C278.17,291.59,269.33,290.53,269.33,290.53Zm.32,13c-.95,1.19-2.54,1.79-4.75,1.79s-3.81-.6-4.76-1.79a6.89,6.89,0,0,1-1.3-4.67c.07-1.69.89-6.49,5.17-7.08v-2.39c-2-.36-4.06-1.92-4.06-5.8,0-4.88,3.24-5.91,4.95-5.91s4.93,1,4.93,5.91c0,3.67-1.85,5.26-3.7,5.72v2.53c4,.8,4.75,5.38,4.82,7A6.89,6.89,0,0,1,269.65,303.52ZM32.46,284c0-7.64-8.57-7.64-14.41-7.64H3.75v30.26h6.33v-27.8h8c1.74,0,7.1,0,7.1,5.18,0,4.12-9,9-13.28,11.25v4.91c2-1,4.84-2.29,6.37-3l7.87,9.49h7.12L23.15,294.58C29.41,290.86,32.46,287.39,32.46,284Zm29.3-7.64H55.87l.4,2.86a136.44,136.44,0,0,1,1.54,17.41c0,3.16-2.11,8.23-7.94,8.23h-.06c-5.82,0-8-5.07-8-8.23a136.41,136.41,0,0,1,1.55-17.41l.4-2.86H37.93s-.41,2.22-.55,3-2.24,12-2.24,15.81c0,7.6,5.62,12.31,14.68,12.31h0c9.06,0,14.68-4.71,14.68-12.31,0-3.85-2.11-15.07-2.25-15.81S61.76,276.38,61.76,276.38Zm64,30.65H132V276.38h-6.32Zm74.46-27.93c-4.91-5.1-17.62-4.84-20.85,1.55a8.28,8.28,0,0,0,.26,7.66l2.49-1.1c-.91-1.2-.89-7.58,4.81-8.59,6.38-1.14,9.45,4.62,8.09,8.13-2.34,6.06-13.38,14.46-18.13,17.73v2.16h26.33v-3.75l-18.14,0C194.33,299.14,209.41,288.68,200.17,279.1Zm42.37-1.37a15.43,15.43,0,0,1-4.75,1v1.91h1a2.39,2.39,0,0,1,2.53,2.43v23.48h6.33V276.38h-2.53A17.25,17.25,0,0,1,242.54,277.73Zm-155,12.84c-1.43-.73-3.45-1.61-6.37-2.77-2.19-.84-3.82-1.51-4.85-2A7.58,7.58,0,0,1,74,284.18a3.08,3.08,0,0,1,.53-4.73,7.94,7.94,0,0,1,4.25-1c2.86,0,7.29.64,10.15,2.22l1.69-2.46c-2-1.12-5.49-2.65-12-2.65-5.48,0-8.57,2.53-9.59,4.64a8,8,0,0,0,2.81,10.22A57.6,57.6,0,0,0,81,295l.23.09a16.42,16.42,0,0,1,2.63,1.36,5,5,0,0,1,1.43,1.37,4.06,4.06,0,0,1-1.1,5.5,6.84,6.84,0,0,1-4.32,1.22c-5,0-11.84-2.1-11.84-2.1L66.42,305a46.88,46.88,0,0,0,14.08,2.46c7.82,0,12-3.65,12.74-7.05C94.07,296.67,92.36,293,87.55,290.57Zm28.1,0c-1.43-.73-3.46-1.61-6.37-2.77-2.19-.84-3.82-1.51-4.85-2a7.46,7.46,0,0,1-2.36-1.63,3.07,3.07,0,0,1,.53-4.73,8,8,0,0,1,4.25-1c2.87,0,7.3.64,10.15,2.22l1.69-2.46c-2-1.12-5.49-2.65-12-2.65-5.49,0-8.56,2.53-9.59,4.64a8,8,0,0,0,2.82,10.22,56.91,56.91,0,0,0,9.14,4.63l.23.09a16.42,16.42,0,0,1,2.63,1.36,5.23,5.23,0,0,1,1.43,1.37,4.05,4.05,0,0,1-1.11,5.5,6.79,6.79,0,0,1-4.31,1.22c-5,0-11.84-2.1-11.84-2.1L94.52,305a46.88,46.88,0,0,0,14.08,2.46c7.81,0,12-3.65,12.74-7.05C122.18,296.67,120.46,293,115.65,290.57Zm42.58-14.19h-6c-2.51,2.6-21.19,25.44-13.69,30.18,5.17,3.27,14.72-2.84,19.32-6.1l-1.79-3c-3.26,2.73-9.25,5.7-11.46,3.63-3.17-3,7.93-21.14,7.93-21.14,1.14,3.77,7.37,20.46,8.81,23.19l1.61,3.18h6.71c-.64-1.19-1.25-2.39-1.85-3.6A126.86,126.86,0,0,1,158.23,276.38Z" transform="translate(-3.75 -252.06)"/><path class="cls-1" d="M95,252.32l-4.9,13.61h4.1l.54-1.83h4.79l.55,1.83h4.24l-4.91-13.61H95m.49,9.18,1.64-5.67,1.7,5.67Zm30.4-9.21-3,13.66H118.2l-1.92-10.48h0L114.44,266h-4.72l-3-13.66h3.73l1.75,10.49h0l1.83-10.49h4.61l1.92,10.49h0l1.78-10.49Zm-51,0h4.24v13.63H74.88Zm-11.78,0H73.57l-1.11,3h-5V258h4.14l-1.17,3h-3v4.92H63.11V252.29ZM90.51,258l-1.16,3h-3v4.92h-4.3V252.29H92.52l-1.11,3h-5V258Zm112.67-5.72h3.65v8.48c0,3.73-2.43,5.41-6,5.41s-6-1.68-6-5.41v-8.48h3.63v7.86c0,1.8.49,3.33,2.34,3.33s2.34-1.53,2.34-3.33Zm-33.68,0h-5V266h5c4.66,0,8.07-1.79,8.07-6.88C177.58,253.79,174.25,252.29,169.5,252.29Zm.07,11h-1.39V255h1.39c2.67,0,4.25,1.42,4.25,4.12S172.3,263.25,169.57,263.25Zm24-.47.17,2.85a14.81,14.81,0,0,1-4,.55c-3.64,0-7.83-1.84-7.83-7,0-4.75,3.31-7.12,7.81-7.12a14.24,14.24,0,0,1,4.05.71l-.31,2.94a7.23,7.23,0,0,0-3.54-1,4.15,4.15,0,0,0-4.27,4.42c0,2.68,1.9,4.3,4.55,4.3A9.64,9.64,0,0,0,193.61,262.78Zm19.08-10.49h-4.33V266H212v-4.78h1.42c3.39,0,5.4-1.64,5.4-4.39C218.81,253.7,216.86,252.29,212.69,252.29Zm.24,6.3H212v-3.71h.94c1.25,0,2.25.44,2.25,1.84S214.18,258.59,212.93,258.59Zm-55.61,4.66h5.62V266h-9.26V252.29h3.64Zm-8.34-4v0a3.19,3.19,0,0,0,2.6-3.44c0-2.35-2-3.45-4.38-3.45h-6.5V266h3.64v-5.4h.77c1.34,0,1.8.58,2.54,2.93l.79,2.47h3.79l-1.33-3.73C150.22,260.57,150.15,259.53,149,259.22ZM145.3,258h-1v-3.09h1c1.39,0,2.65.22,2.65,1.5C148,257.93,146.46,258,145.3,258Zm-12.64-5.9c-4.49,0-6.84,2.67-6.84,7s2.38,7.07,6.84,7.07,6.85-2.73,6.85-7.07S137.17,252.07,132.66,252.07Zm0,11.41c-2.2,0-3.07-2.11-3.07-4.37s.87-4.35,3.07-4.35,3.1,2,3.1,4.35S134.87,263.48,132.66,263.48Z" transform="translate(-3.75 -252.06)"/></svg>